/* XPM */
static char * cpu16_xpm[] = {
"16 16 111 2",
"  	c None",
". 	c #0F110C",
"+ 	c #29281E",
"@ 	c #1A1B14",
"# 	c #191B13",
"$ 	c #2A291F",
"% 	c #000000",
"& 	c #505B3E",
"* 	c #E3DEA4",
"= 	c #E3DEA3",
"- 	c #899267",
"; 	c #889065",
"> 	c #F2EEAF",
", 	c #151610",
"' 	c #414536",
") 	c #383D30",
"! 	c #3E4336",
"~ 	c #404437",
"{ 	c #3E4335",
"] 	c #32372A",
"^ 	c #2F3427",
"/ 	c #313526",
"( 	c #27251C",
"_ 	c #CBC391",
": 	c #393E30",
"< 	c #929981",
"[ 	c #8E967B",
"} 	c #899176",
"| 	c #818A6D",
"1 	c #81896B",
"2 	c #757E5E",
"3 	c #6C7753",
"4 	c #3F4631",
"5 	c #99946D",
"6 	c #97926C",
"7 	c #1B1D15",
"8 	c #8B9368",
"9 	c #414537",
"0 	c #8D9579",
"a 	c #808A69",
"b 	c #8D9679",
"c 	c #929A7E",
"d 	c #878F70",
"e 	c #6C7751",
"f 	c #6A7450",
"g 	c #3D432E",
"h 	c #69704F",
"i 	c #666C4C",
"j 	c #8B9469",
"k 	c #43473A",
"l 	c #8C9378",
"m 	c #7B8562",
"n 	c #CECFC6",
"o 	c #D9D8D2",
"p 	c #D3D1CB",
"q 	c #66724A",
"r 	c #606A49",
"s 	c #3E442F",
"t 	c #656C4B",
"u 	c #2C2B20",
"v 	c #E6E1A6",
"w 	c #3E4236",
"x 	c #848D6F",
"y 	c #747E59",
"z 	c #C6C8BC",
"A 	c #C1C0B8",
"B 	c #A7A59F",
"C 	c #646F4A",
"D 	c #5D6646",
"E 	c #AAA77A",
"F 	c #A7A479",
"G 	c #2C2B21",
"H 	c #E8E3A8",
"I 	c #373C30",
"J 	c #7A8364",
"K 	c #717C57",
"L 	c #7B8563",
"M 	c #7A8362",
"N 	c #727A5C",
"O 	c #5D6746",
"P 	c #555E41",
"Q 	c #3D442F",
"R 	c #A5A377",
"S 	c #11130D",
"T 	c #50593D",
"U 	c #383C2C",
"V 	c #6B7454",
"W 	c #656F4C",
"X 	c #5D6647",
"Y 	c #586042",
"Z 	c #4F573C",
"` 	c #50583D",
" .	c #414731",
"..	c #414933",
"+.	c #3D442E",
"@.	c #13140F",
"#.	c #363B2A",
"$.	c #2A2F21",
"%.	c #2E3224",
"&.	c #2B2F22",
"*.	c #303425",
"=.	c #4D563B",
"-.	c #DDD89E",
";.	c #D8D49B",
">.	c #828A61",
",.	c #80885F",
"'.	c #D9D59C",
").	c #E2DFA3",
"!.	c #0F110B",
"~.	c #29281D",
"{.	c #2B2A1F",
"                                ",
"                                ",
"      . + + @ # + $ %           ",
"      & * = - ; * > %           ",
"    , ' ) ! ~ { ] ^ /           ",
"( _ : < [ } | 1 2 3 4 5 6       ",
"7 8 9 0 a b c d e f g h i       ",
"7 j k l m n o p q r s h t       ",
"u v w x y z A B C D g E F       ",
"G H I J K L M N O P Q R E       ",
"S T U V W X Y Z Z `  ...+.      ",
"    @.#.$.$.%.%.$.&.*.          ",
"      =.-.;.>.,.'.).%           ",
"      !.~.~.# # ~.{.%           ",
"                                ",
"                                "};
