/* XPM */
static char * mem16_xpm[] = {
"16 16 67 1",
" 	c None",
".	c #688A51",
"+	c #7FA163",
"@	c #7FA261",
"#	c #80A361",
"$	c #7E9F62",
"%	c #7FA162",
"&	c #7FA360",
"*	c #6E9059",
"=	c #759953",
"-	c #5F645A",
";	c #504D53",
">	c #7C9E5B",
",	c #6D7B61",
"'	c #5F5B62",
")	c #698252",
"!	c #6F9059",
"~	c #85A562",
"{	c #5E615A",
"]	c #3D3B3E",
"^	c #90AD73",
"/	c #7E8676",
"(	c #454445",
"_	c #7C8E69",
":	c #70915A",
"<	c #8AA964",
"[	c #4F534A",
"}	c #2E2B31",
"|	c #90AE6B",
"1	c #707B63",
"2	c #302F32",
"3	c #778C5F",
"4	c #72925B",
"5	c #8EAC64",
"6	c #819B5D",
"7	c #7B935A",
"8	c #90AE66",
"9	c #87A261",
"0	c #788F58",
"a	c #8EAB65",
"b	c #73945C",
"c	c #829F5A",
"d	c #668537",
"e	c #638333",
"f	c #75955D",
"g	c #97B16C",
"h	c #7E9A56",
"i	c #809C59",
"j	c #5A7F40",
"k	c #91AD73",
"l	c #8EAA71",
"m	c #90AC72",
"n	c #92AD70",
"o	c #92AD71",
"p	c #838645",
"q	c #D1D259",
"r	c #CCCD57",
"s	c #BBBC45",
"t	c #909243",
"u	c #CDCD56",
"v	c #CCCC57",
"w	c #D0D058",
"x	c #7F8141",
"y	c #9FA44D",
"z	c #9DA24B",
"A	c #A0A54E",
"B	c #787C3B",
"                ",
"                ",
"                ",
".+@#$%&%%&%$#@+.",
"*=-;>,'))',>;-=*",
"!~{]^/(__(/^]{~!",
":<[}|123321|}[<:",
"4567890aa0987654",
"bcdeeeeeeeeeedcb",
"fghiiiiiiiiiihgf",
"jkllllllmnolllk ",
"pqrrrrrrs tuvvwx",
" yzzzzzzA Bzzzy ",
"                ",
"                ",
"                "};
