/* XPM */
static char * mem24_xpm[] = {
"24 24 124 2",
"  	c None",
". 	c #5B8242",
"+ 	c #698D50",
"@ 	c #6C9050",
"# 	c #6C924B",
"$ 	c #6D944C",
"% 	c #6D954A",
"& 	c #6E954B",
"* 	c #6C914B",
"= 	c #6D954B",
"- 	c #6D944B",
"; 	c #70954D",
"> 	c #536443",
", 	c #5E5A62",
"' 	c #4D4C4F",
") 	c #739851",
"! 	c #70974D",
"~ 	c #52584D",
"{ 	c #5B585D",
"] 	c #586051",
"^ 	c #6B8E4B",
"/ 	c #6F9251",
"( 	c #8BA76E",
"_ 	c #666C60",
": 	c #575657",
"< 	c #4E4D4F",
"[ 	c #A5B990",
"} 	c #8EAB71",
"| 	c #5F615E",
"1 	c #4D4D4E",
"2 	c #656862",
"3 	c #88A06F",
"4 	c #729554",
"5 	c #8EAB70",
"6 	c #646A5D",
"7 	c #3F3F40",
"8 	c #434244",
"9 	c #A5BB90",
"0 	c #92AF74",
"a 	c #585A56",
"b 	c #363636",
"c 	c #5C5F58",
"d 	c #8BA371",
"e 	c #779858",
"f 	c #92AE73",
"g 	c #616858",
"h 	c #2B2A2C",
"i 	c #3A393B",
"j 	c #A6BA8D",
"k 	c #96B176",
"l 	c #525450",
"m 	c #222223",
"n 	c #53564E",
"o 	c #8DA572",
"p 	c #7C9C5D",
"q 	c #87A75E",
"r 	c #63764A",
"s 	c #484E40",
"t 	c #4E5545",
"u 	c #86A85C",
"v 	c #88A95E",
"w 	c #5A654A",
"x 	c #454C3C",
"y 	c #5A6849",
"z 	c #81A05B",
"A 	c #819F60",
"B 	c #8FAC66",
"C 	c #8FAB66",
"D 	c #8BA664",
"E 	c #8CA864",
"F 	c #91AE67",
"G 	c #8DA965",
"H 	c #8BA764",
"I 	c #90AD67",
"J 	c #87A466",
"K 	c #789652",
"L 	c #5F7F3B",
"M 	c #5F7F3A",
"N 	c #8DA96B",
"O 	c #668543",
"P 	c #648233",
"Q 	c #607F2E",
"R 	c #607F2F",
"S 	c #8EAA6B",
"T 	c #9EB772",
"U 	c #9AB46F",
"V 	c #9BB570",
"W 	c #9BB470",
"X 	c #8BA769",
"Y 	c #A3BB79",
"Z 	c #A2BA79",
"` 	c #A4BB79",
" .	c #778A41",
"..	c #AABA65",
"+.	c #91A252",
"@.	c #9DAE5B",
"#.	c #A9B965",
"$.	c #8E9F4F",
"%.	c #859650",
"&.	c #79955F",
"*.	c #6B8248",
"=.	c #9AAA5F",
"-.	c #9EAE5C",
";.	c #7F9146",
">.	c #A4A849",
",.	c #D4D664",
"'.	c #C3C651",
").	c #CBCE5A",
"!.	c #D3D664",
"~.	c #C1C44E",
"{.	c #A3A649",
"].	c #575C17",
"^.	c #C8CB64",
"/.	c #CBCD5A",
"(.	c #A7AA4E",
"_.	c #ADB25E",
":.	c #CFD36F",
"<.	c #CFD370",
"[.	c #CED36F",
"}.	c #D0D470",
"|.	c #ABB05C",
"1.	c #555A1C",
"2.	c #CFD378",
"3.	c #AAAF5C",
"                                                ",
"                                                ",
"                                                ",
"                                                ",
"  . + + + + + + + + + + + + + + + + + + + + .   ",
"  @ # $ % & * * = % - # # - % = * * & % $ # @   ",
"  @ ; > , ' ) ! ~ { ] ^ ^ ] { ~ ! ) ' , > ; @   ",
"  / ( _ : < [ } | 1 2 3 3 2 1 | } [ < : _ ( /   ",
"  4 5 6 7 8 9 0 a b c d d c b a 0 9 8 7 6 5 4   ",
"  e f g h i j k l m n o o n m l k j i h g f e   ",
"  p q r s t u v w x y z z y x w v u t s r q p   ",
"  A B C D E F F G H G I I G H G F F E D C B A   ",
"  J K L M M M M M M M M M M M M M M M M L K J   ",
"  N O P Q R R R R R R R R R R R R R R Q P O N   ",
"  S T U V W W W W W W W W W W W W W W V U T S   ",
"  X Y Y Y Z Y Y Z Y Y Z Y Y Y ` Y Y Y Y Y Y X   ",
"   ...+.@.#.+.@.#.+.@.#.$.%.&.*.=.@.@.@.@.-.;.  ",
"  >.,.'.).!.'.).!.'.).!.~.{.  ].^././././.).(.  ",
"  _.:.<.:.[.<.:.[.<.:.[.}.|.  1.2.:.:.:.:.}.3.  ",
"                                                ",
"                                                ",
"                                                ",
"                                                ",
"                                                "};
